# xmcd
#
# Track frame offsets:
#	150
#	14733
#	32432
#	53243
#	69124
#	83615
#	101859
#	118130
#	134758
#	149445
#	168370
#	183186
#	200766
#	216192
#	230401
#	244389
#
# Disc length: 3469 seconds
#
# Revision: 1
# Processed by: cddbd v1.5.2PL0 Copyright (c) Steve Scherf et al.
# Submitted via: audiograbber 1.83.01
#
DISCID=ec0d8b10
DTITLE=CB50513 - Chartbuster CB50513 Alabama vol 2
DYEAR=1900
DGENRE=Karaoke
TTITLE0=Alabama - I'm In A Hurry (& I Don't Know Why)
TTITLE1=Alabama - Fire In The Night
TTITLE2=Alabama - Angels Among Us
TTITLE3=Alabama - T.L.C.A.S.A.P.
TTITLE4=Alabama - Take A Little Trip
TTITLE5=Alabama - Cheap Seats
TTITLE6=Alabama - In Pictures
TTITLE7=Alabama - Give Me One More Shot
TTITLE8=Alabama - Say I
TTITLE9=Alabama - Dancin', Shaggin' On The Boulevard
TTITLE10=Alabama - Maker Said Take Her
TTITLE11=Alabama - Of Course I'm All Right
TTITLE12=Alabama - She's Got That Look In Her Eyes
TTITLE13=Alabama - How Do You Fall In Love
TTITLE14=Alabama - Keepin' Up
TTITLE15=Alabama - God Must Have Spent A Little More Time On You
EXTD=
EXTT0=
EXTT1=
EXTT2=
EXTT3=
EXTT4=
EXTT5=
EXTT6=
EXTT7=
EXTT8=
EXTT9=
EXTT10=
EXTT11=
EXTT12=
EXTT13=
EXTT14=
EXTT15=
PLAYORDER=
